# xmcd
#
# Track frame offsets:
#	150
#	12165
#	25437
#	34518
#	45633
#	62209
#	78723
#	91227
#	106676
#	118995
#	132510
#	149085
#	161524
#	180594
#
# Disc length: 2464 seconds
#
# Revision: 1
# Processed by: cddbd v1.5.2PL0 Copyright (c) Steve Scherf et al.
# Submitted via: audiograbber 1.83.01
#
DISCID=bf099e0e
DTITLE=Disharmonie - Vom Scheitel bis zum Knie
DYEAR=1900
DGENRE=
TTITLE0=Disharmonie
TTITLE1=Im Baumarkt
TTITLE2=Hasso
TTITLE3=Dream
TTITLE4=Durchfall
TTITLE5=Nur für dich
TTITLE6=Traumfrau
TTITLE7=Gliftet
TTITLE8=Motorboot
TTITLE9=Something Stupid
TTITLE10=ALDI
TTITLE11=Wie kann es sein
TTITLE12=Krampf
TTITLE13=Ade
EXTD=
EXTT0=
EXTT1=
EXTT2=
EXTT3=
EXTT4=
EXTT5=
EXTT6=
EXTT7=
EXTT8=
EXTT9=
EXTT10=
EXTT11=
EXTT12=
EXTT13=
PLAYORDER=
